<svg id="visual" viewBox="0 0 900 600" width="900" height="600" xmlns="http://www.w3.org/2000/svg" xmlns:xlink="http://www.w3.org/1999/xlink" version="1.1"><rect x="0" y="0" width="900" height="600" fill="#fff"></rect><path d="M0 421L16.7 418.5C33.3 416 66.7 411 100 404.7C133.3 398.3 166.7 390.7 200 396C233.3 401.3 266.7 419.7 300 427.7C333.3 435.7 366.7 433.3 400 430C433.3 426.7 466.7 422.3 500 409.5C533.3 396.7 566.7 375.3 600 374.5C633.3 373.7 666.7 393.3 700 404.2C733.3 415 766.7 417 800 417.2C833.3 417.3 866.7 415.7 883.3 414.8L900 414L900 601L883.3 601C866.7 601 833.3 601 800 601C766.7 601 733.3 601 700 601C666.7 601 633.3 601 600 601C566.7 601 533.3 601 500 601C466.7 601 433.3 601 400 601C366.7 601 333.3 601 300 601C266.7 601 233.3 601 200 601C166.7 601 133.3 601 100 601C66.7 601 33.3 601 16.7 601L0 601Z" fill="#ffffff"></path><path d="M0 479L16.7 478.8C33.3 478.7 66.7 478.3 100 466C133.3 453.7 166.7 429.3 200 420.5C233.3 411.7 266.7 418.3 300 430.3C333.3 442.3 366.7 459.7 400 462.2C433.3 464.7 466.7 452.3 500 442.8C533.3 433.3 566.7 426.7 600 420.3C633.3 414 666.7 408 700 404.2C733.3 400.3 766.7 398.7 800 398.3C833.3 398 866.7 399 883.3 399.5L900 400L900 601L883.3 601C866.7 601 833.3 601 800 601C766.7 601 733.3 601 700 601C666.7 601 633.3 601 600 601C566.7 601 533.3 601 500 601C466.7 601 433.3 601 400 601C366.7 601 333.3 601 300 601C266.7 601 233.3 601 200 601C166.7 601 133.3 601 100 601C66.7 601 33.3 601 16.7 601L0 601Z" fill="#fccdd0"></path><path d="M0 453L16.7 460C33.3 467 66.7 481 100 482.7C133.3 484.3 166.7 473.7 200 472.8C233.3 472 266.7 481 300 484.2C333.3 487.3 366.7 484.7 400 485.8C433.3 487 466.7 492 500 486.2C533.3 480.3 566.7 463.7 600 462.7C633.3 461.7 666.7 476.3 700 480C733.3 483.7 766.7 476.3 800 471.2C833.3 466 866.7 463 883.3 461.5L900 460L900 601L883.3 601C866.7 601 833.3 601 800 601C766.7 601 733.3 601 700 601C666.7 601 633.3 601 600 601C566.7 601 533.3 601 500 601C466.7 601 433.3 601 400 601C366.7 601 333.3 601 300 601C266.7 601 233.3 601 200 601C166.7 601 133.3 601 100 601C66.7 601 33.3 601 16.7 601L0 601Z" fill="#f39ba3"></path><path d="M0 538L16.7 529.7C33.3 521.3 66.7 504.7 100 499.7C133.3 494.7 166.7 501.3 200 506.3C233.3 511.3 266.7 514.7 300 513.5C333.3 512.3 366.7 506.7 400 501.2C433.3 495.7 466.7 490.3 500 497.2C533.3 504 566.7 523 600 523.5C633.3 524 666.7 506 700 502.7C733.3 499.3 766.7 510.7 800 511.5C833.3 512.3 866.7 502.7 883.3 497.8L900 493L900 601L883.3 601C866.7 601 833.3 601 800 601C766.7 601 733.3 601 700 601C666.7 601 633.3 601 600 601C566.7 601 533.3 601 500 601C466.7 601 433.3 601 400 601C366.7 601 333.3 601 300 601C266.7 601 233.3 601 200 601C166.7 601 133.3 601 100 601C66.7 601 33.3 601 16.7 601L0 601Z" fill="#e56678"></path><path d="M0 542L16.7 543.7C33.3 545.3 66.7 548.7 100 554C133.3 559.3 166.7 566.7 200 564.8C233.3 563 266.7 552 300 548.7C333.3 545.3 366.7 549.7 400 552.7C433.3 555.7 466.7 557.3 500 556.7C533.3 556 566.7 553 600 550C633.3 547 666.7 544 700 540.7C733.3 537.3 766.7 533.7 800 536.5C833.3 539.3 866.7 548.7 883.3 553.3L900 558L900 601L883.3 601C866.7 601 833.3 601 800 601C766.7 601 733.3 601 700 601C666.7 601 633.3 601 600 601C566.7 601 533.3 601 500 601C466.7 601 433.3 601 400 601C366.7 601 333.3 601 300 601C266.7 601 233.3 601 200 601C166.7 601 133.3 601 100 601C66.7 601 33.3 601 16.7 601L0 601Z" fill="#d21d50"></path></svg>