<svg id="visual" viewBox="0 0 900 600" width="900" height="600" xmlns="http://www.w3.org/2000/svg" xmlns:xlink="http://www.w3.org/1999/xlink" version="1.1"><rect x="0" y="0" width="900" height="600" fill="#FFF"></rect><path d="M0 481L21.5 482C43 483 86 485 128.8 488.3C171.7 491.7 214.3 496.3 257.2 492.2C300 488 343 475 385.8 467.7C428.7 460.3 471.3 458.7 514.2 466C557 473.3 600 489.7 642.8 489.8C685.7 490 728.3 474 771.2 466.7C814 459.3 857 460.7 878.5 461.3L900 462L900 601L878.5 601C857 601 814 601 771.2 601C728.3 601 685.7 601 642.8 601C600 601 557 601 514.2 601C471.3 601 428.7 601 385.8 601C343 601 300 601 257.2 601C214.3 601 171.7 601 128.8 601C86 601 43 601 21.5 601L0 601Z" fill="#ffffff"></path><path d="M0 521L21.5 514.3C43 507.7 86 494.3 128.8 492.2C171.7 490 214.3 499 257.2 500.3C300 501.7 343 495.3 385.8 493.7C428.7 492 471.3 495 514.2 493.3C557 491.7 600 485.3 642.8 489.8C685.7 494.3 728.3 509.7 771.2 512.8C814 516 857 507 878.5 502.5L900 498L900 601L878.5 601C857 601 814 601 771.2 601C728.3 601 685.7 601 642.8 601C600 601 557 601 514.2 601C471.3 601 428.7 601 385.8 601C343 601 300 601 257.2 601C214.3 601 171.7 601 128.8 601C86 601 43 601 21.5 601L0 601Z" fill="#d3f4eb"></path><path d="M0 525L21.5 522.8C43 520.7 86 516.3 128.8 513.2C171.7 510 214.3 508 257.2 508.7C300 509.3 343 512.7 385.8 517C428.7 521.3 471.3 526.7 514.2 525.7C557 524.7 600 517.3 642.8 516.8C685.7 516.3 728.3 522.7 771.2 526.2C814 529.7 857 530.3 878.5 530.7L900 531L900 601L878.5 601C857 601 814 601 771.2 601C728.3 601 685.7 601 642.8 601C600 601 557 601 514.2 601C471.3 601 428.7 601 385.8 601C343 601 300 601 257.2 601C214.3 601 171.7 601 128.8 601C86 601 43 601 21.5 601L0 601Z" fill="#a5e9d8"></path><path d="M0 565L21.5 564C43 563 86 561 128.8 559.3C171.7 557.7 214.3 556.3 257.2 552C300 547.7 343 540.3 385.8 540C428.7 539.7 471.3 546.3 514.2 549.5C557 552.7 600 552.3 642.8 551C685.7 549.7 728.3 547.3 771.2 546.3C814 545.3 857 545.7 878.5 545.8L900 546L900 601L878.5 601C857 601 814 601 771.2 601C728.3 601 685.7 601 642.8 601C600 601 557 601 514.2 601C471.3 601 428.7 601 385.8 601C343 601 300 601 257.2 601C214.3 601 171.7 601 128.8 601C86 601 43 601 21.5 601L0 601Z" fill="#6fddc5"></path><path d="M0 579L21.5 575.5C43 572 86 565 128.8 561C171.7 557 214.3 556 257.2 557.3C300 558.7 343 562.3 385.8 567.2C428.7 572 471.3 578 514.2 580.3C557 582.7 600 581.3 642.8 577.7C685.7 574 728.3 568 771.2 565.8C814 563.7 857 565.3 878.5 566.2L900 567L900 601L878.5 601C857 601 814 601 771.2 601C728.3 601 685.7 601 642.8 601C600 601 557 601 514.2 601C471.3 601 428.7 601 385.8 601C343 601 300 601 257.2 601C214.3 601 171.7 601 128.8 601C86 601 43 601 21.5 601L0 601Z" fill="#00d1b2"></path></svg>